{"title":"Fighter [The] (2010) BRrip - HDrendy Dolby Surround [Greek Subs]","uid":6327703,"size":1279591677,"categoryP":"video","categoryS":"movies","magnet":"?xt=urn:btih:29bc6efa1d5794dbf22aa5b158b3106ee57a2845&amp;dn=Fighter+%5BThe%5D+%282010%29+BRrip+-+HDrendy+Dolby+Surround+%5BGreek+Subs%5D&amp;tr=udp%3A%2F%2Ftracker.openbittorrent.com%3A80&amp;tr=udp%3A%2F%2Fopen.demonii.com%3A1337&amp;tr=udp%3A%2F%2Ftracker.coppersurfer.tk%3A6969&amp;tr=udp%3A%2F%2Fexodus.desync.com%3A6969","seeders":1,"leechers":0,"uploader":"OmifastGR","files":-1,"time":1303168066,"description":"IMDB &lt;a href=&quot;\nhttp://www.imdb.com/title/tt0964517/&quot; rel=&quot;nofollow&quot; target=&quot;_NEW&quot;&gt;\nhttp://www.imdb.com/title/tt0964517/&lt;/a&gt;\n\nFighter [The] (2010) BRrip - [Hard Greek Subs]\n\nFormat                           : AVI\nFormat/Info                      : Audio Video Interleave\nFile size                        : 1.18 GiB\nDuration                         : 1h 55mn\nOverall bit rate                 : 1 459 Kbps\n\nVideo\nID                               : 0\nFormat                           : AVC\nFormat/Info                      : Advanced Video Codec\nCodec ID                         : H264\nBit rate                         : 1 000 Kbps\nWidth                            : 720 pixels\nHeight                           : 400 pixels\nDisplay aspect ratio             : 16:9\nFrame rate                       : 25.000 fps\nStream size                      : 827 MiB (69%)\nWriting library                  : x264 core 65\n\nAudio\nID                               : 1\nFormat                           : AC-3\nFormat/Info                      : Audio Coding 3\nDuration                         : 1h 55mn\nBit rate mode                    : Constant\nBit rate                         : 448 Kbps\nChannel(s)                       : 6 channels\nChannel positions                : Front: L C R, Side: L R, LFE\nSampling rate                    : 48.0 KHz\nBit depth                        : 16 bits\nCompression mode                 : Lossy\nStream size                      : 371 MiB (31%)\n\n","torrent":{"xt":"urn:btih:29bc6efa1d5794dbf22aa5b158b3106ee57a2845","amp;dn":"Fighter+%5BThe%5D+%282010%29+BRrip+-+HDrendy+Dolby+Surround+%5BGreek+Subs%5D","amp;tr":["udp%3A%2F%2Ftracker.openbittorrent.com%3A80","udp%3A%2F%2Fopen.demonii.com%3A1337","udp%3A%2F%2Ftracker.coppersurfer.tk%3A6969","udp%3A%2F%2Fexodus.desync.com%3A6969"],"infoHash":"29bc6efa1d5794dbf22aa5b158b3106ee57a2845","infoHashBuffer":{"type":"Buffer","data":[41,188,110,250,29,87,148,219,242,42,165,177,88,179,16,110,229,122,40,69]},"announce":[],"urlList":[]}}